<?xml version="1.0" encoding="UTF-8"?>
<svg width="1920px" height="1200px" viewBox="0 0 1920 1200" version="1.1" xmlns="http://www.w3.org/2000/svg" xmlns:xlink="http://www.w3.org/1999/xlink">
    <title>Stake Dark 2备份 2</title>
    <defs>
        <rect id="path-1" x="0.982990689" y="0" width="1920" height="1200"></rect>
        <linearGradient x1="100%" y1="50%" x2="0%" y2="50%" id="linearGradient-3">
            <stop stop-color="#1B1B3A" offset="0%"></stop>
            <stop stop-color="#2D30C4" offset="17.2918274%"></stop>
            <stop stop-color="#373193" offset="38.177067%"></stop>
            <stop stop-color="#4230A6" offset="56.7644173%"></stop>
            <stop stop-color="#771BE2" offset="79.9556782%"></stop>
            <stop stop-color="#FF00E6" offset="100%"></stop>
        </linearGradient>
        <filter x="-5.9%" y="-13.1%" width="111.8%" height="126.2%" filterUnits="objectBoundingBox" id="filter-4">
            <feGaussianBlur stdDeviation="50" in="SourceGraphic"></feGaussianBlur>
        </filter>
        <linearGradient x1="100%" y1="50%" x2="0%" y2="46.4999376%" id="linearGradient-5">
            <stop stop-color="#3B3B81" offset="0%"></stop>
            <stop stop-color="#494CD6" offset="25.1866054%"></stop>
            <stop stop-color="#373193" offset="38.177067%"></stop>
            <stop stop-color="#4230A6" offset="57.1410945%"></stop>
            <stop stop-color="#482472" offset="79.9556782%"></stop>
            <stop stop-color="#A733D0" offset="100%"></stop>
        </linearGradient>
        <filter x="-8.6%" y="-20.2%" width="117.1%" height="140.3%" filterUnits="objectBoundingBox" id="filter-6">
            <feGaussianBlur stdDeviation="50" in="SourceGraphic"></feGaussianBlur>
        </filter>
        <radialGradient cx="50%" cy="0%" fx="50%" fy="0%" r="100%" gradientTransform="translate(0.500000,0.000000),scale(0.625000,1.000000),rotate(90.000000),translate(-0.500000,-0.000000)" id="radialGradient-7">
            <stop stop-color="#0C0C0C" stop-opacity="0" offset="0%"></stop>
            <stop stop-color="#0C0C0C" offset="100%"></stop>
        </radialGradient>
        <linearGradient x1="50%" y1="0%" x2="50%" y2="100%" id="linearGradient-8">
            <stop stop-color="#000000" stop-opacity="0.55" offset="0%"></stop>
            <stop stop-color="#000000" stop-opacity="0" offset="100%"></stop>
        </linearGradient>
        <rect id="path-9" x="0.982990689" y="0" width="1920" height="1200"></rect>
    </defs>
    <g id="Stake-Dark-2备份-2" stroke="none" stroke-width="1" fill="none" fill-rule="evenodd">
        <rect fill="#0C0C0C" x="0" y="0" width="1920" height="1200"></rect>
        <g id="编组" transform="translate(-0.982991, 0.000000)">
            <mask id="mask-2" fill="white">
                <use xlink:href="#path-1"></use>
            </mask>
            <g id="蒙版"></g>
            <path d="M44.9829907,300.5 C198.501836,288.971407 129.757515,266.677911 193.982991,389 C200.624872,401.649946 354.676331,143.207177 360.982991,156 C393.316221,221.586743 333.557453,659.869737 387.187389,711.731687 C406.95266,730.845368 431.414282,757.205159 459.307485,767.119267 C506.97585,784.062079 563.693063,682.899104 594.482991,652.5 C608.74642,638.41762 658.062455,622.945619 682.982991,623.5 C702.600203,623.936403 705.627898,678.680476 724.018283,684.95041 C797.789431,710.101608 791.159896,959.78669 838.482991,1015.5 C885.806085,1071.21331 940.685212,868.690621 966.786022,899.460057 C970.229925,903.519969 974.08115,907.335849 978.358562,910.666472 C979.555819,911.598722 981.284026,911.895464 982.853835,911.971324 C1004.50443,913.017576 1032.77422,885.157546 1044.49844,873.703265 C1103.71993,815.845273 1106.81594,722.329671 1125.74793,652.481296 C1137.665,608.51403 1185.07878,643.475844 1198.98299,600 C1217.24944,542.884265 1245.45005,258.164363 1298.48299,228 C1351.2179,198.005152 1413.90254,598.40935 1453.65382,623.5 C1474.90939,636.916329 1513.90218,441.215266 1536.61864,452.449139 C1552.30736,460.20761 1579.08225,672.581279 1593.91174,673 C1645.0707,674.444508 1932.62679,465.105831 1981.98299,453.5 C1998.54201,449.60624 1873.93882,513.837124 1892.94163,504.5 C1989.7441,456.935626 2226.7231,376.658619 2291.98299,300.5 C2549.01851,0.53827794 2169.25257,63.5467839 2339,-107.294013 L-163.239528,-118 L44.9829907,300.5 Z" id="路径-5" fill="url(#linearGradient-3)" filter="url(#filter-4)" mask="url(#mask-2)"></path>
            <path d="M185.186411,161.282019 C292.798833,153.082334 363.785808,343.015038 408.806072,430.01634 C413.461845,439.013585 499.162757,104.056632 503.58355,113.155497 C526.248241,159.803916 514.794069,435.258048 552.387156,472.144741 C566.242058,485.739302 583.388972,504.487642 602.941328,511.539028 C636.35552,523.589564 690.210828,492.314202 711.793707,470.69291 C721.791972,460.67685 731.577673,444.156977 749.046272,444.551279 C762.79739,444.861669 775.605056,448.637143 788.496202,453.096619 C840.207715,470.98535 835.363663,573.89228 868.53583,613.518243 C901.707997,653.144205 940.373666,583.781419 958.669604,605.666109 C961.083684,608.553712 963.783285,611.267747 966.781631,613.636646 C967.620875,614.299706 968.8323,614.510763 969.932692,614.564718 C985.109157,615.308863 1004.92549,595.493481 1013.14384,587.34665 C1054.65645,546.195287 1056.82666,479.682532 1070.09746,430.003037 C1078.45099,398.731421 1087.24278,367.548475 1096.98924,336.626382 C1109.79352,296.002948 1168.30838,64.4543332 1205.48299,43 C1242.44869,21.6662339 1272.61846,95.1543335 1300.48299,113 C1315.38256,122.542333 1344.55939,65.0099339 1360.48299,73 C1371.48034,78.5181951 1387.87215,444.299104 1398.26721,444.596918 C1434.12821,445.62432 1472.15379,292.622757 1506.75111,284.368136 C1518.35853,281.598708 1550.89993,272.98222 1564.22036,266.341213 C1632.07619,232.511162 1681.45059,167.208894 1727.19596,113.041252 C1907.37067,-100.305828 1801.56506,11.1247295 1920.55327,-110.385391 L166.553265,-118 L185.186411,161.282019 Z" id="路径-5" fill="url(#linearGradient-5)" filter="url(#filter-6)" mask="url(#mask-2)"></path>
            <g id="矩形" mask="url(#mask-2)">
                <use fill="url(#radialGradient-7)" xlink:href="#path-9"></use>
                <use fill="url(#linearGradient-8)" xlink:href="#path-9"></use>
            </g>
        </g>
    </g>
</svg>