<?xml version="1.0" encoding="UTF-8"?>
<svg width="40px" height="40px" viewBox="0 0 40 40" version="1.1" xmlns="http://www.w3.org/2000/svg" xmlns:xlink="http://www.w3.org/1999/xlink">
    <title>BTC</title>
    <g id="BTC" stroke="none" stroke-width="1" fill="none" fill-rule="evenodd">
        <g id="bitcoin" fill-rule="nonzero">
            <circle id="Oval" fill="#F7931A" cx="20" cy="20" r="20"></circle>
            <path d="M28.9861908,17.5252307 C29.3781908,14.9049231 27.3831139,13.4963077 24.6551139,12.5566154 L25.5400369,9.00707692 L23.3794215,8.46861539 L22.5178831,11.9246154 C21.9498831,11.7830769 21.3664985,11.6495385 20.7868061,11.5172308 L21.6544985,8.03846154 L19.4951139,7.5 L18.6095754,11.0483077 C18.1394215,10.9412308 17.6778831,10.8353846 17.2298831,10.724 L17.2323446,10.7129231 L14.2526523,9.96892307 L13.6778831,12.2766154 C13.6778831,12.2766154 15.28096,12.644 15.2471139,12.6667693 C16.1221908,12.8852308 16.2803446,13.4643077 16.2538831,13.9233846 L15.2458831,17.9670769 C15.3061907,17.9824615 15.3843446,18.0046154 15.4704985,18.0390769 C15.3984985,18.0212308 15.3215754,18.0015385 15.2421908,17.9824615 L13.8292677,23.6470769 C13.7221908,23.9129231 13.4508061,24.3116923 12.8391139,24.1603077 C12.8606522,24.1916923 11.2686523,23.7683078 11.2686523,23.7683078 L10.1960369,26.2415385 L13.0077292,26.9424615 C13.5308061,27.0735385 14.0434215,27.2107693 14.5480369,27.34 L13.6538831,30.9301539 L15.8120369,31.4686154 L16.6975754,27.9166154 C17.2871139,28.0766154 17.8594215,28.2243078 18.4194215,28.3633846 L17.53696,31.8987693 L19.6975754,32.4372307 L20.5917293,28.8538461 C24.2760369,29.5510769 27.0464985,29.2698461 28.2126523,25.9375385 C29.1523446,23.2544615 28.1658831,21.7067693 26.2274215,20.6975385 C27.6391139,20.372 28.7024985,19.4433846 28.9861908,17.5252307 L28.9861908,17.5252307 Z M24.0495754,24.4476922 C23.3818831,27.1307693 18.8643446,25.6803078 17.3997293,25.3166154 L18.5861908,20.5603077 C20.0508061,20.9258461 24.7474215,21.6495385 24.0495754,24.4476922 Z M24.7178831,17.4864615 C24.1086522,19.9270769 20.3486522,18.6870769 19.12896,18.3830769 L20.2046523,14.0692307 C21.4243446,14.3732307 25.3523446,14.9406154 24.7178831,17.4864615 Z" id="Shape" fill="#FFFFFF"></path>
        </g>
    </g>
</svg>