<?xml version="1.0" encoding="UTF-8"?>
<svg width="56px" height="56px" viewBox="0 0 56 56" version="1.1" xmlns="http://www.w3.org/2000/svg" xmlns:xlink="http://www.w3.org/1999/xlink">
    <title>编组 5</title>
    <defs>
        <rect id="path-1" x="0" y="0" width="5.32" height="28"></rect>
        <filter x="-169.2%" y="-32.1%" width="438.3%" height="164.3%" filterUnits="objectBoundingBox" id="filter-2">
            <feOffset dx="0" dy="0" in="SourceAlpha" result="shadowOffsetOuter1"></feOffset>
            <feGaussianBlur stdDeviation="3" in="shadowOffsetOuter1" result="shadowBlurOuter1"></feGaussianBlur>
            <feColorMatrix values="0 0 0 0 0.207167731   0 0 0 0 0.135156541   0 0 0 0 0.945282425  0 0 0 0.4 0" type="matrix" in="shadowBlurOuter1"></feColorMatrix>
        </filter>
    </defs>
    <g id="页面-2" stroke="none" stroke-width="1" fill="none" fill-rule="evenodd">
        <g id="Stake-Dark" transform="translate(-932.000000, -100.000000)">
            <g id="编组-5" transform="translate(932.000000, 100.000000)">
                <circle id="椭圆形" fill="#5B4BFF" fill-rule="nonzero" cx="28" cy="28" r="28"></circle>
                <g id="编组" transform="translate(15.680000, 14.000000)">
                    <path d="M0,0 L14.9245283,0 C22.1459119,0 28,5.82660215 28,13.0140801 C28,17.7743926 25.4321059,21.9377572 21.5998229,24.206789 C22.3545882,25.3037305 22.8379734,26.6000364 22.9540098,28.0000141 L17.6149515,28.0002126 C17.3398894,26.9361521 16.4123854,26.1327437 15.2821755,26.037612 L15.1021024,26.0285424 L5.28301887,26.0281603 L5.283,27.9999461 L0,27.9999906 L0,0 Z M14.9245283,5.2582142 L5.28301887,5.2582142 L5.28301887,20.7699461 L14.9245283,20.7699461 C19.2281812,20.7699461 22.7169811,17.2975266 22.7169811,13.0140801 C22.7169811,8.77346812 19.2976083,5.32774369 15.0533908,5.25925326 L14.9245283,5.2582142 Z" id="形状结合" fill="#FFFFFF" fill-rule="nonzero"></path>
                    <g id="矩形">
                        <use fill="black" fill-opacity="1" filter="url(#filter-2)" xlink:href="#path-1"></use>
                        <use fill="#FFFFFF" fill-rule="evenodd" xlink:href="#path-1"></use>
                    </g>
                </g>
            </g>
        </g>
    </g>
</svg>